<svg width="24" height="24" viewBox="0 0 24 24" fill="none" xmlns="http://www.w3.org/2000/svg">
<g clip-path="url(#clip0_101_3406)">
<path d="M12.0008 -0.000244141C8.74183 -0.000244141 8.33284 0.0140062 7.05286 0.0722569C5.77539 0.130758 4.9034 0.33301 4.14042 0.629763C3.35118 0.936266 2.6817 1.34627 2.01471 2.01353C1.34722 2.68054 0.937231 3.35004 0.629737 4.13905C0.332243 4.90231 0.129747 5.77457 0.0722485 7.05158C0.0149996 8.3316 0 8.74085 0 11.9999C0 15.2589 0.0144999 15.6667 0.0724988 16.9467C0.131248 18.2242 0.333494 19.0962 0.629988 19.8592C0.936732 20.6485 1.34672 21.318 2.01396 21.985C2.6807 22.6525 3.35018 23.0635 4.13892 23.37C4.9024 23.6668 5.77464 23.869 7.05186 23.9275C8.33184 23.9858 8.74058 24 11.9993 24C15.2584 24 15.6662 23.9858 16.9462 23.9275C18.2236 23.869 19.0966 23.6668 19.8601 23.37C20.6491 23.0635 21.3176 22.6525 21.9843 21.985C22.6518 21.318 23.0618 20.6485 23.3693 19.8595C23.6643 19.0962 23.8668 18.224 23.9268 16.9469C23.9843 15.6669 23.9993 15.2589 23.9993 11.9999C23.9993 8.74085 23.9843 8.33185 23.9268 7.05183C23.8668 5.77432 23.6643 4.90231 23.3693 4.1393C23.0618 3.35004 22.6518 2.68054 21.9843 2.01353C21.3168 1.34602 20.6493 0.936016 19.8594 0.629763C19.0944 0.33301 18.2219 0.130758 16.9444 0.0722569C15.6644 0.0140062 15.2569 -0.000244141 11.997 -0.000244141H12.0008ZM10.9243 2.16228C11.2438 2.16178 11.6003 2.16228 12.0008 2.16228C15.2047 2.16228 15.5844 2.17378 16.8497 2.23128C18.0196 2.28478 18.6546 2.48028 19.0776 2.64453C19.6376 2.86204 20.0369 3.12204 20.4566 3.54204C20.8766 3.96205 21.1366 4.36205 21.3546 4.92206C21.5188 5.34456 21.7146 5.97957 21.7678 7.14958C21.8253 8.4146 21.8378 8.7946 21.8378 11.9971C21.8378 15.1997 21.8253 15.5797 21.7678 16.8447C21.7143 18.0147 21.5188 18.6497 21.3546 19.0722C21.1371 19.6322 20.8766 20.031 20.4566 20.4507C20.0366 20.8707 19.6379 21.1307 19.0776 21.3482C18.6551 21.5132 18.0196 21.7082 16.8497 21.7617C15.5847 21.8192 15.2047 21.8317 12.0008 21.8317C8.79658 21.8317 8.41683 21.8192 7.15186 21.7617C5.98188 21.7077 5.34689 21.5122 4.92365 21.348C4.36366 21.1305 3.96367 20.8705 3.54368 20.4505C3.12369 20.0305 2.86369 19.6315 2.6457 19.0712C2.48145 18.6487 2.28571 18.0137 2.23246 16.8437C2.17496 15.5787 2.16346 15.1987 2.16346 11.9941C2.16346 8.7896 2.17496 8.4116 2.23246 7.14658C2.28595 5.97657 2.48145 5.34156 2.6457 4.91856C2.86319 4.35855 3.12369 3.95855 3.54368 3.53854C3.96367 3.11854 4.36366 2.85854 4.92365 2.64053C5.34664 2.47553 5.98188 2.28053 7.15186 2.22678C8.25884 2.17678 8.68783 2.16178 10.9243 2.15928V2.16228ZM18.4061 4.1548C17.6112 4.1548 16.9662 4.79906 16.9662 5.59432C16.9662 6.38932 17.6112 7.03433 18.4061 7.03433C19.2011 7.03433 19.8461 6.38932 19.8461 5.59432C19.8461 4.79931 19.2011 4.1543 18.4061 4.1543V4.1548ZM12.0008 5.83732C8.59758 5.83732 5.83838 8.5966 5.83838 11.9999C5.83838 15.4032 8.59758 18.1612 12.0008 18.1612C15.4039 18.1612 18.1621 15.4032 18.1621 11.9999C18.1621 8.5966 15.4039 5.83732 12.0008 5.83732ZM12.0008 7.99984C14.2097 7.99984 16.0007 9.79061 16.0007 11.9999C16.0007 14.2089 14.2097 15.9999 12.0008 15.9999C9.79156 15.9999 8.00084 14.2089 8.00084 11.9999C8.00084 9.79061 9.79156 7.99984 12.0008 7.99984Z" fill="white" fill-opacity="0.8"/>
</g>
<defs>
<clipPath id="clip0_101_3406">
<rect width="24" height="24" fill="white"/>
</clipPath>
</defs>
</svg>
